Coordinates
version=1
nRows=13
nColumns=40
inDegrees=yes

Units are S.I. units (second, meters, Newtons, ...)
If the header above contains a line with 'inDegrees', this indicates whether rotational values are in degrees (yes) or radians (no).

endheader
time	pelvis_tilt	pelvis_list	pelvis_rotation	pelvis_tx	pelvis_ty	pelvis_tz	hip_flexion_r	hip_adduction_r	hip_rotation_r	knee_angle_r	knee_angle_r_beta	ankle_angle_r	subtalar_angle_r	mtp_angle_r	hip_flexion_l	hip_adduction_l	hip_rotation_l	knee_angle_l	knee_angle_l_beta	ankle_angle_l	subtalar_angle_l	mtp_angle_l	lumbar_extension	lumbar_bending	lumbar_rotation	arm_flex_r	arm_add_r	arm_rot_r	elbow_flex_r	pro_sup_r	wrist_flex_r	wrist_dev_r	arm_flex_l	arm_add_l	arm_rot_l	elbow_flex_l	pro_sup_l	wrist_flex_l	wrist_dev_l
      0.00000000	     15.35295134	     -1.31076544	      3.48072200	     -0.85013768	      0.57683565	      0.28539577	     43.43801819	    -10.43865241	      0.00000000	     60.50676848	      1.05604233	     -5.02721269	      0.00000000	      0.00000000	     43.43801819	    -10.43865241	      0.00000000	     60.50676848	      1.05604233	     -5.02721269	      0.00000000	      0.00000000	    -27.38100014	      4.06176439	     -1.73526791	     -4.38111370	    -30.67832139	     -5.98389734	    120.77436284	     88.18097234	      0.00000000	      0.00000000	     -0.02647217	    -28.18032058	     -4.60342839	    115.63904123	     89.39151418	      0.00000000	      0.00000000
      0.00500000	     15.38022237	     -1.29073897	      3.51160717	     -0.85010161	      0.57690561	      0.28530037	     43.47983083	    -10.40227201	      0.00000000	     60.49606883	      1.05585559	     -5.02441390	      0.00000000	      0.00000000	     43.47983083	    -10.40227201	      0.00000000	     60.49606883	      1.05585559	     -5.02441390	      0.00000000	      0.00000000	    -27.40398374	      4.07180900	     -1.75164133	     -4.41475713	    -30.69586525	     -6.00030565	    120.79686722	     88.17768589	      0.00000000	      0.00000000	      0.02556680	    -28.15278873	     -4.52429359	    115.59852230	     89.38497789	      0.00000000	      0.00000000
      0.01000000	     15.32123839	     -1.28970655	      3.51715610	     -0.85011324	      0.57680061	      0.28528723	     43.52360071	    -10.36189564	      0.00000000	     60.48556548	      1.05567227	     -5.02137668	      0.00000000	      0.00000000	     43.52360071	    -10.36189564	      0.00000000	     60.48556548	      1.05567227	     -5.02137668	      0.00000000	      0.00000000	    -27.33759048	      4.06850423	     -1.76151527	     -4.41765950	    -30.69174095	     -5.99746480	    120.78749603	     88.19731558	      0.00000000	      0.00000000	      0.01901375	    -28.14576966	     -4.53762485	    115.59986899	     89.38408571	      0.00000000	      0.00000000
      0.01500000	     15.34861703	     -1.24447670	      3.54966592	     -0.85005716	      0.57675836	      0.28531473	     43.57268851	    -10.32492860	      0.00000000	     60.47287530	      1.05545078	     -5.01868670	      0.00000000	      0.00000000	     43.57268851	    -10.32492860	      0.00000000	     60.47287530	      1.05545078	     -5.01868670	      0.00000000	      0.00000000	    -27.34768202	      4.04107609	     -1.86020912	     -4.35946416	    -30.73232051	     -5.83748539	    120.81334929	     88.27227819	      0.00000000	      0.00000000	     -0.09114990	    -28.27014330	     -4.74007842	    115.61196434	     89.36975668	      0.00000000	      0.00000000
      0.02000000	     15.35778858	     -1.20969746	      3.58993005	     -0.85003794	      0.57680462	      0.28518805	     43.61753069	    -10.29355631	      0.00000000	     60.46111219	      1.05524548	     -5.01644353	      0.00000000	      0.00000000	     43.61753069	    -10.29355631	      0.00000000	     60.46111219	      1.05524548	     -5.01644353	      0.00000000	      0.00000000	    -27.35364834	      4.03166432	     -1.89327821	     -4.36919494	    -30.75288086	     -5.82900917	    120.81674281	     88.26242670	      0.00000000	      0.00000000	     -0.03894417	    -28.25874082	     -4.62403324	    115.67083464	     89.38211604	      0.00000000	      0.00000000
      0.02500000	     15.37087440	     -1.20929047	      3.60162984	     -0.85001630	      0.57682191	      0.28517456	     43.65109004	    -10.25646820	      0.00000000	     60.45450493	      1.05513016	     -5.01376931	      0.00000000	      0.00000000	     43.65109004	    -10.25646820	      0.00000000	     60.45450493	      1.05513016	     -5.01376931	      0.00000000	      0.00000000	    -27.36239873	      4.03903562	     -1.90100370	     -4.37082569	    -30.75199128	     -5.82747605	    120.82876535	     88.27801684	      0.00000000	      0.00000000	     -0.05191916	    -28.25498382	     -4.65321753	    115.64893655	     89.37855992	      0.00000000	      0.00000000
      0.03000000	     15.42821874	     -1.20158453	      3.67205542	     -0.84997935	      0.57694288	      0.28508213	     43.67564926	    -10.22611226	      0.00000000	     60.45083179	      1.05506605	     -5.01167288	      0.00000000	      0.00000000	     43.67564926	    -10.22611226	      0.00000000	     60.45083179	      1.05506605	     -5.01167288	      0.00000000	      0.00000000	    -27.41321264	      4.06386026	     -1.96655761	     -4.36092824	    -30.73402328	     -5.82597789	    120.81031599	     88.27672026	      0.00000000	      0.00000000	     -0.03608949	    -28.26126295	     -4.64477951	    115.63726861	     89.38129678	      0.00000000	      0.00000000
      0.03500000	     15.42941043	     -1.24376032	      3.57408863	     -0.84995032	      0.57694188	      0.28524861	     43.69889053	    -10.21137584	      0.00000000	     60.44473297	      1.05495961	     -5.01069052	      0.00000000	      0.00000000	     43.69889053	    -10.21137584	      0.00000000	     60.44473297	      1.05495961	     -5.01069052	      0.00000000	      0.00000000	    -27.41896472	      4.06022557	     -1.86707194	     -4.35497233	    -30.76871271	     -5.78534779	    120.81520198	     88.24974088	      0.00000000	      0.00000000	     -0.05803035	    -28.25225622	     -4.66468151	    115.66166326	     89.38444853	      0.00000000	      0.00000000
      0.04000000	     15.37369256	     -1.19225885	      3.62717846	     -0.84998250	      0.57681675	      0.28511331	     43.72344160	    -10.19518566	      0.00000000	     60.43905447	      1.05486050	     -5.00965670	      0.00000000	      0.00000000	     43.72344160	    -10.19518566	      0.00000000	     60.43905447	      1.05486050	     -5.00965670	      0.00000000	      0.00000000	    -27.35761166	      4.03675854	     -1.93011004	     -4.38018850	    -30.75558500	     -5.80741578	    120.84224708	     88.21932853	      0.00000000	      0.00000000	     -0.04178788	    -28.25431742	     -4.67275636	    115.63009421	     89.38627997	      0.00000000	      0.00000000
      0.04500000	     15.39248948	     -1.25126356	      3.58211710	     -0.84998463	      0.57686093	      0.28523235	     43.72974329	    -10.18768165	      0.00000000	     60.43793556	      1.05484097	     -5.00914344	      0.00000000	      0.00000000	     43.72974329	    -10.18768165	      0.00000000	     60.43793556	      1.05484097	     -5.00914344	      0.00000000	      0.00000000	    -27.37986898	      4.07139232	     -1.86233087	     -4.37216456	    -30.74793832	     -5.82338314	    120.82669414	     88.26688874	      0.00000000	      0.00000000	     -0.04612158	    -28.24229718	     -4.67395477	    115.64421175	     89.38206324	      0.00000000	      0.00000000
      0.05000000	     15.40083318	     -1.21078317	      3.59809744	     -0.84999699	      0.57687140	      0.28515867	     43.69433120	    -10.19332505	      0.00000000	     60.44978070	      1.05504771	     -5.00940965	      0.00000000	      0.00000000	     43.69433120	    -10.19332505	      0.00000000	     60.44978070	      1.05504771	     -5.00940965	      0.00000000	      0.00000000	    -27.38885735	      4.03959650	     -1.89577756	     -4.36493917	    -30.75667979	     -5.81476018	    120.81386321	     88.29190799	      0.00000000	      0.00000000	     -0.03146032	    -28.26500769	     -4.64763933	    115.64202215	     89.38021816	      0.00000000	      0.00000000
      0.05500000	     15.38032021	     -1.22387918	      3.59972777	     -0.85000017	      0.57684963	      0.28516045	     43.73896965	    -10.17386141	      0.00000000	     60.43744785	      1.05483246	     -5.00823938	      0.00000000	      0.00000000	     43.73896965	    -10.17386141	      0.00000000	     60.43744785	      1.05483246	     -5.00823938	      0.00000000	      0.00000000	    -27.36524825	      4.05462110	     -1.89734560	     -4.36453321	    -30.74954427	     -5.82421380	    120.82231956	     88.26790549	      0.00000000	      0.00000000	     -0.05234907	    -28.23925359	     -4.62811483	    115.65513417	     89.38910184	      0.00000000	      0.00000000
      0.06000000	     15.52359384	     -1.30308961	      3.57597790	     -0.85000029	      0.57713738	      0.28526830	     43.75137562	    -10.16069292	      0.00000000	     60.43578672	      1.05480346	     -5.00741321	      0.00000000	      0.00000000	     43.75137562	    -10.16069292	      0.00000000	     60.43578672	      1.05480346	     -5.00741321	      0.00000000	      0.00000000	    -27.52266323	      4.12688258	     -1.85333293	     -4.28327554	    -30.77133447	     -5.76731828	    120.80127527	     88.14523492	      0.00000000	      0.00000000	     -0.05069305	    -28.25624300	     -4.64350793	    115.66306622	     89.40088811	      0.00000000	      0.00000000
